<svg width="10" height="5" viewBox="0 0 10 5" fill="none" xmlns="http://www.w3.org/2000/svg">
<path d="M0.759049 5H9.24095C9.39109 4.99997 9.53784 4.9613 9.66266 4.88887C9.78748 4.81644 9.88477 4.71351 9.94222 4.59309C9.99967 4.47267 10.0147 4.34016 9.98542 4.21232C9.95614 4.08448 9.88386 3.96705 9.77771 3.87487L5.53676 0.192984C5.39439 0.0694164 5.20132 0 5 0C4.79868 0 4.60561 0.0694164 4.46324 0.192984L0.222287 3.87487C0.116142 3.96705 0.0438603 4.08448 0.0145794 4.21232C-0.0147015 4.34016 0.000333386 4.47267 0.0577829 4.59309C0.115232 4.71351 0.212517 4.81644 0.337339 4.88887C0.462161 4.9613 0.608915 4.99997 0.759049 5Z" fill="#FFB01F"/>
</svg>
